<?xml version="1.0" encoding="UTF-8"?>
<svg id="Layer_2" data-name="Layer 2" xmlns="http://www.w3.org/2000/svg" viewBox="0 0 120.5 148.71">
	<defs>
		<style>
			.cls-1 {
			fill: #ecfbfb;
			}
			
			.cls-1, .cls-2, .cls-3 {
			stroke-width: 0px;
			}
			
			.cls-2 {
			fill: #151716;
			}
			
			.cls-3 {
			fill: #f72828;
			}
		</style>
	</defs>
	<g id="Eyes">
		<g>
			<path class="cls-3" d="M37.82,68.77c-2.62,0-5.08-.64-7.26-1.76,3.1,2.72,7.32,4.33,11.59,4.16,7.52-.29,12.19-4.51,13.39-12.08.33-1.29.65-2.59.98-3.88.39-5.71-2.05-9.8-6.29-12.54,2.24,2.75,3.59,6.27,3.59,10.1,0,8.84-7.16,16-16,16Z" />
			<path class="cls-3" d="M99.72,41.69c2.98,2.91,4.83,6.96,4.83,11.45,0,8.84-7.16,16-16,16-2.6,0-5.04-.63-7.21-1.73,2.26,1.93,5.04,3.28,8.02,3.68,8.28,1.11,14.07-2.85,16.17-11.05.03-2.64.06-5.28.1-7.92-.18-5.02-2.21-8.53-5.91-10.43Z" />
			<path class="cls-3" d="M120.46,59.62C120.4,26.12,94.36.08,60.87,0,26.56-.09.42,25.58.26,59.55c-.04,9.16,0,18.33,0,27.49,0,9.66-.68,19.39.21,28.97.72,7.81,2.85,15.6,5.27,23.09,1.37,4.23,3.82,9.21,9.33,9.25,5.99.04,7.29-5.57,9.33-9.81,2.38-4.93,4-10.28,6.73-14.99,3.56-6.13,9.19-6.07,12.99-.11,1.86,2.92,3.02,6.28,4.46,9.46,1.57,3.48,2.81,7.15,4.71,10.45,4.07,7.09,10.2,7.16,14.14.03,2.48-4.49,3.99-9.5,6.16-14.17,2-4.3,3.41-9.79,9.25-9.97,6.27-.19,7.61,5.62,9.72,10,2.31,4.78,3.89,9.95,6.51,14.54,3.68,6.43,8.51,6.53,12.89.51,5.75-7.92,8.44-16.95,8.49-26.68.1-19.33.06-38.66.02-57.98ZM21.82,52.77c0-8.84,7.16-16,16-16,5.01,0,9.47,2.3,12.41,5.9,4.24,2.74,6.68,6.83,6.29,12.54-.33,1.29-.65,2.59-.98,3.88-1.2,7.57-5.88,11.79-13.39,12.08-4.28.16-8.49-1.44-11.59-4.16-5.18-2.65-8.74-8.03-8.74-14.24ZM105.53,60.04c-2.1,8.2-7.89,12.16-16.17,11.05-2.98-.4-5.75-1.75-8.02-3.68-5.21-2.64-8.79-8.03-8.79-14.27,0-8.84,7.16-16,16-16,4.35,0,8.28,1.74,11.17,4.55,3.7,1.9,5.73,5.41,5.91,10.43-.03,2.64-.06,5.28-.1,7.92Z" />
			<circle class="cls-1" cx="38.05" cy="53.21" r="16.5" />
			<circle class="cls-1" cx="89.05" cy="53.21" r="16.5" />
			<g>
				<path class="cls-2" d="M92.91,62.37c3.87.24,7.43-2.99,7.62-6.91.18-3.85-3.16-7.39-7.06-7.48-3.95-.09-7.34,3.23-7.32,7.15.02,3.86,2.96,7.01,6.76,7.24Z" />
				<path class="cls-2" d="M42.74,47.98c-3.95-.09-7.34,3.23-7.32,7.15.02,3.86,2.96,7.01,6.76,7.24,3.87.24,7.43-2.99,7.62-6.91.18-3.85-3.16-7.39-7.06-7.48Z" />
			</g>
		</g>
	</g>
</svg>
