<?xml version="1.0" encoding="UTF-8"?>
<svg id="Layer_2" data-name="Layer 2" xmlns="http://www.w3.org/2000/svg" viewBox="0 0 104.59 116.65">
  <defs>
    <style>
      .cls-1 {
        fill: #130909;
      }

      .cls-1, .cls-2, .cls-3, .cls-4, .cls-5 {
        stroke-width: 0px;
      }

      .cls-2 {
        fill: #15140b;
      }

      .cls-3 {
        fill: #54b14b;
      }

      .cls-4 {
        fill: #071309;
      }

      .cls-5 {
        fill: #f7b227;
      }
    </style>
  </defs>
  <g id="Fruit">
    <g>
      <path class="cls-5" d="M75.09,19.7c3.05.3,5.83.57,5.93,4.89.03,1.45,1.92,3.95,3.18,4.11,5.59.7,6.69,5.35,9.05,9,.54.83,1.66,1.69,2.59,1.79,4.3.45,5.36,3.07,5,6.82-.24,8.1-.51,16.2-.71,24.3-.08,3.23-.01,6.47-.01,10.23h-10.07v19.76h-19.48c-.24,3.54-.44,6.6-.66,10.02-10.24,0-20.03-.05-29.82.04-1.91.02-3.82.57-5.72.88-3.46.54-4.46-1.48-4.57-4.41.24-2,.48-4,.82-6.93-5.99.49-11.1.91-16.21,1.33-3.26.49-4.38-1.22-4.4-4.18-.02-3.41-.11-6.81-.17-10.22.27-2,.53-4.01.93-6.97-2.76.59-4.57.98-6.38,1.37C.96,82.03.02,80.12.02,77.15.04,66.2.06,55.25,0,44.31c-.02-3.27,1.62-4.59,4.65-4.25,4.01.45,5.92-.94,5.39-5.21-.4-3.27,1.08-5.18,4.56-4.8,3.98.44,5.94-.88,5.4-5.19-.46-3.7,1.53-5.01,5.06-4.87,4.97.19,9.95.15,14.92.21.93.92,1.86,1.85,2.8,2.78-.46,1.74-.92,3.49-1.29,4.87,1.68.21,3.85.48,6.01.75l13.02,1.77c7.09.16,9.09-1.73,10.27-9.69,0,0-.09.07-.09.07l4.38-1.03Z"/>
      <path class="cls-3" d="M42.78,22.97c-.93-.93-1.86-1.85-2.8-2.78-.01-1.49.14-3.01-.06-4.47-.61-4.35,1.07-6.24,5.5-5.57,3.43.52,5.03-.97,4.5-4.46-.66-4.35,1.04-5.88,5.5-5.63,6.29.36,12.63.42,18.91-.02,4.97-.34,7.22,1.17,6.47,6.27-.4,7.48-7.24,2.39-10.1,5.14v9.28s.09-.07.09-.07c-3.24,0-6.48,0-10.27,0v9.69c-4.34-.59-8.68-1.18-13.02-1.77,1.17-2.33,2.33-4.66,3.5-6.99-.59-.54-1.18-1.07-1.78-1.61-2.15.99-4.3,1.99-6.45,2.98Z"/>
      <path class="cls-1" d="M34.36,111.54c1.91-.31,3.81-.86,5.72-.88,9.79-.09,19.57-.04,29.82-.04.23-3.42.43-6.47.66-10.02h19.48v-19.76h10.07c0-3.75-.07-6.99.01-10.23.2-8.1.47-16.2.71-24.3,1.15.11,2.31.22,3.76.36v40.12h-9.47v19.96h-19.89v9.89h-40.16c-.22-1.63-.46-3.37-.7-5.11Z"/>
      <path class="cls-4" d="M70.71,20.74v-9.28c2.86-2.75,9.7,2.34,10.1-5.14,1.27.13,2.54.26,3.92.4v10.2c-2.44,0-4.75-.29-6.93.13-1.03.2-1.81,1.73-2.71,2.67-1.46.35-2.92.69-4.38,1.03Z"/>
      <path class="cls-1" d="M14.4,101.52c5.11-.42,10.22-.84,16.21-1.33-.35,2.93-.59,4.93-.82,6.93-4.78,0-9.57,0-14.63,0-.29-2.13-.52-3.87-.76-5.61Z"/>
      <path class="cls-2" d="M4.38,81.53c1.81-.39,3.62-.77,6.38-1.37-.4,2.96-.66,4.96-.93,6.97-1.48-.11-2.96-.21-4.73-.34-.24-1.77-.48-3.52-.72-5.26Z"/>
      <path class="cls-4" d="M60.53,30.36v-9.69c3.79,0,7.03,0,10.27,0-1.18,7.96-3.19,9.85-10.27,9.69Z"/>
      <path class="cls-2" d="M42.78,22.97c2.15-.99,4.3-1.99,6.45-2.98.59.54,1.18,1.07,1.78,1.61-1.17,2.33-2.33,4.66-3.5,6.99-2.17-.27-4.33-.54-6.02-.75.37-1.39.83-3.13,1.29-4.87Z"/>
    </g>
  </g>
</svg>