<?xml version="1.0" encoding="UTF-8"?>
<svg id="Layer_2" data-name="Layer 2" xmlns="http://www.w3.org/2000/svg" viewBox="0 0 109.74 112.46">
  <defs>
    <style>
      .cls-1 {
        fill: #fd0000;
      }

      .cls-1, .cls-2, .cls-3, .cls-4, .cls-5, .cls-6, .cls-7, .cls-8, .cls-9, .cls-10, .cls-11, .cls-12 {
        stroke-width: 0px;
      }

      .cls-2 {
        fill: #eccbcc;
      }

      .cls-3 {
        fill: #f19ea1;
      }

      .cls-4 {
        fill: #d69554;
      }

      .cls-5 {
        fill: #130909;
      }

      .cls-6 {
        fill: #15140b;
      }

      .cls-7 {
        fill: #f4f4f4;
      }

      .cls-8 {
        fill: #e5100f;
      }

      .cls-9 {
        fill: #e4dbdb;
      }

      .cls-10 {
        fill: #f10908;
      }

      .cls-11 {
        fill: #585858;
      }

      .cls-12 {
        fill: #350f0e;
      }
    </style>
  </defs>
  <g id="Fruit">
    <g>
      <path class="cls-10" d="M2.89,80c-.96-1.27-2.71-2.52-2.74-3.8C-.08,65.8.02,55.4.02,44.39c2.93-.18,5.63-.34,8.96-.54,0-2.45,0-4.7,0-6.95.31-.51.62-1.03.93-1.55,8.57.04,17.13.08,25.7.13.1,2.85.21,5.71.31,8.56-2.88,0-5.76,0-8.65,0v8.57h8.59v-8.63c4.5-.26,8.99-.51,13.49-.77.74-.02,1.49-.03,2.23-.05.78,2.55,1.56,5.11,2.33,7.66-.66.78-1.33,1.57-1.99,2.35-2,.02-4,.04-6.01.07-.55,1.04-1.65,2.14-1.56,3.12.36,3.97-1.24,5.38-5.13,5.04-3.38-.3-4.05,2-4.04,4.85.02,7.28-.07,14.56-.11,21.85,0,0-.13.08-.13.08-.32.11-.65.21-.97.32-7.35.11-14.69.23-22.04.34,0,0-.22-.35-.22-.35-1.03-.79-2.07-1.59-3.1-2.38.79-7.11.31-7.63-5.73-6.1ZM19.92,70.84c-.93-2.93-1.87-5.86-2.79-8.76h-9.01c.74,3.24,1.33,5.89,1.93,8.53,1.91.03,3.82.06,5.74.09.62,1.77,1.13,3.59,1.91,5.29.56,1.21,1.49,2.24,2.26,3.36.96,0,1.92.02,2.87.02,1.43.42,3.25,1.75,3.14-1.36-.1-1.99-.21-3.99-.31-5.98l-2.81-1.17c-.97,0-1.95,0-2.92,0Z"/>
      <path class="cls-4" d="M107.85,5.98c.19.22.17.42-.06.6-.51,3.5-1.03,6.99-1.65,11.21h-17.26v16.84q-8.6,1.33-6.83,7.38c-.4.12-.8.24-1.19.37-.18.19-.37.38-.56.58-2.05.6-4.09,1.21-6.39,1.88v6.18c-.98,1.51-2.7,2.97-2.8,4.53-.32,4.79,0,9.61.05,14.42-.22.22-.35.48-.39.78-2.62.02-5.25.05-7.87.07-.27-.28-.53-.56-.8-.84-.07-5.67-.14-11.35-.21-17.02.36-2.92.72-5.84,1.07-8.76.63-.08,1.26-.16,1.89-.23,1.68,0,3.37,0,5.05,0,.34-.3.67-.61,1.01-.91.01-.7.03-1.39.04-2.09.04-1.64.07-3.29.11-4.93.16-.14.21-.32.17-.53q9.42-.76,8.71-10.38c-.02-.32-.08-.65-.12-.97v-6.47c-2.28.16-4.04.29-5.81.41-.99-.7-1.99-1.41-2.98-2.11.3-7.35-1.51-7.04,7.33-7.06,3.14,0,6.29-.11,9.43-.17.69-2.91,1.38-5.83,2.07-8.75,0,0,.03-.01.03-.01,5.32,0,10.64,0,15.96,0,0,0,.03.01.03.01.65,1.99,1.3,3.98,1.94,5.96Z"/>
      <path class="cls-6" d="M99.88,68.84c.29.35.83.7.84,1.05.04,11.12.04,22.24.04,33.9h-8.79v8.66h-35.73c0-1.75,0-3.5,0-5.25.06.22.19.38.38.48,9.42.09,18.85.23,28.27.19,1.01,0,2.01-1.14,3.02-1.75.42-2.36.85-4.72,1.27-7.08.58-.58,1.17-1.15,1.75-1.73,2.23-.15,4.45-.3,6.68-.45.76-1.36,2.14-2.7,2.17-4.07.21-7.98.1-15.97.09-23.95Z"/>
      <path class="cls-6" d="M82.05,42.01q-1.76-6.05,6.83-7.38v-16.84h17.26c.62-4.22,1.14-7.72,1.65-11.21.64.76,1.82,1.51,1.84,2.29.17,4.97.09,9.94.09,15.28h-17.64v17.87c-3.3,0-6.21,0-9.13,0-.3.01-.6.01-.9-.01Z"/>
      <path class="cls-5" d="M11.94,88.84c7.35-.11,14.69-.23,22.04-.34.32-.11.65-.21.97-.32,0,0,.13-.08.13-.08.6-1.36,1.67-2.7,1.73-4.09.22-4.81.08-9.64.08-14.46,0-6.88.98-7.58,7.57-5.49-.18,1.47-.35,2.93-.53,4.4-1.62.09-3.24.18-5.35.3v26.19H12.93c-.34-2-.68-4-1.02-5.99l.03-.1Z"/>
      <path class="cls-8" d="M97.61,96.87c-2.23.15-4.45.3-6.68.45-.35-.16-.71-.33-1.06-.49,1.86-.49,3.71-.99,6-1.6,0-9.51.09-18.97-.14-28.43-.02-.96-1.99-2.7-3.01-2.67-4.24.13-5.26-2.09-4.85-5.64.41-3.51-1.05-4.96-4.52-4.48-.49.07-1,0-1.5,0-8.99-.02-8.88-.02-9.07,8.83-.05,2.38-1.06,4.75-1.63,7.12-.06-4.81-.37-9.64-.06-14.42.1-1.57,1.82-3.03,2.8-4.53,2.33.29,4.65.59,6.98.88,2.49.55,4.99,1.11,7.88,1.75-.52,5.87,2.45,8.8,8.79,8.32.29,2.29.55,4.36.81,6.42-.26,9.49-.51,18.98-.76,28.47Z"/>
      <path class="cls-4" d="M53.86,18.01c5.32-.13,10.63-.27,15.95-.4.43,2.27.85,4.54,1.28,6.82-1.25.65-2.46,1.78-3.75,1.87-3.62.25-7.27.08-10.91.08-4.73-1.6-1.72-5.57-2.57-8.36Z"/>
      <path class="cls-4" d="M49.35,43.2l-13.49.77s.06.06.06.06c-.1-2.85-.21-5.71-.31-8.56.77-.14,1.54-.28,2.32-.42,1.97-.02,3.95-.04,5.92-.05,0,0,0,.09,0,.08.17,1.8.35,3.59.58,6.05,1.24-1.88,1.91-2.89,2.58-3.9.79,1.99,1.57,3.98,2.35,5.97Z"/>
      <path class="cls-8" d="M56.62,107.69c-.19-.11-.32-.26-.38-.48-1.05-1.08-2.11-2.16-3.15-3.24.15-2.24.29-4.48.43-6.72.78.79,2.28,1.64,2.22,2.36-.35,4.1,1.83,4.56,5.16,4.47,6.45-.19,12.92-.33,19.36.04,4.79.27,8.29-.38,8.46-6.11.16.35.32.7.47,1.06-.42,2.36-.85,4.72-1.27,7.08-9.43-.07-18.85-.19-28.28-.12-1.01,0-2.01,1.1-3.01,1.68Z"/>
      <path class="cls-8" d="M43.92,68.44c.18-1.47.35-2.93.53-4.39,1.39-1.02,2.78-2.91,4.16-2.89,4.12.04,5.09-2.01,5.21-5.54.03-.86,1.41-1.68,2.17-2.52.21,6-.02,11.61-8.48,11.18-.48-.02-1.53,2.29-1.54,3.53-.07,9.73.04,19.47.1,29.21l.21-.02c-.56-1.47-1.53-2.92-1.6-4.41-.38-8.04-.53-16.09-.76-24.13Z"/>
      <path class="cls-5" d="M80.89,51.9c-2.33-.29-4.65-.59-6.98-.88,0-2.08,0-4.16,0-6.18,2.29-.68,4.34-1.28,6.39-1.88.25-.12.44-.32.56-.58.4-.12.8-.24,1.19-.37.3.02.6.03.9.01-.69,3.29-1.37,6.59-2.06,9.88Z"/>
      <path class="cls-4" d="M44.61,35.02c.39-2.82.77-5.64,1.16-8.46,1.92.27,3.83.54,5.54.78.66,2.12,1.23,3.93,1.79,5.73-1.85.73-3.71,1.46-5.56,2.19-.98-.08-1.95-.16-2.93-.24Z"/>
      <path class="cls-12" d="M97.61,96.87c.25-9.49.51-18.98.76-28.47.5.15,1,.3,1.5.44,0,7.99.11,15.97-.09,23.95-.04,1.38-1.42,2.72-2.17,4.07Z"/>
      <path class="cls-2" d="M53.1,33.08c-.56-1.81-1.13-3.61-1.79-5.73-1.71-.24-3.62-.51-5.54-.78,1.77-.8,3.54-1.6,5.04-2.28,1.03-2.11,2.04-4.2,3.05-6.28.85,2.79-2.15,6.77,2.58,8.36-.38.66-.77,1.32-1.16,1.98.21,1.57.41,3.13.62,4.7l.04-.1c-.95.04-1.89.08-2.84.13Z"/>
      <path class="cls-12" d="M53.51,97.24c-.14,2.24-.28,4.48-.43,6.72-1.79,0-3.57,0-5.19,0-.62-2.66-1.12-4.81-1.62-6.97,0,0-.2.02-.2.02.95-.09,1.91-.19,2.86-.28,1.31.08,2.62.16,3.92.23.18.19.39.28.65.28Z"/>
      <path class="cls-5" d="M2.89,80c6.04-1.53,6.52-1.01,5.73,6.1-1.77,0-3.53,0-5.73,0v-6.1Z"/>
      <path class="cls-2" d="M71.09,24.42c-.43-2.27-.85-4.54-1.28-6.82.41-.54.82-1.08,1.24-1.62.99.7,1.99,1.41,2.98,2.11-.06,1.98-.13,3.96-.19,5.94l.1-.1c-.95.16-1.89.32-2.84.48Z"/>
      <path class="cls-2" d="M89.88.02c-.69,2.92-1.38,5.83-2.07,8.75.69-2.92,1.38-5.83,2.07-8.75Z"/>
      <path class="cls-2" d="M105.87,0c-5.32,0-10.64,0-15.96,0,5.32,0,10.64,0,15.96,0Z"/>
      <path class="cls-2" d="M44.61,35.02c.98.08,1.95.16,2.93.24-.18.66-.37,1.32-.55,1.97-.67,1.01-1.33,2.01-2.57,3.89-.24-2.45-.41-4.25-.58-6.05.25-.13.51-.15.78-.06Z"/>
      <path class="cls-11" d="M11.91,88.93c.34,2,.68,4,1.02,5.99-.39-2.04-.78-4.08-1.17-6.12,0,0,.15.12.15.12Z"/>
      <path class="cls-2" d="M107.85,5.98c-.65-1.99-1.3-3.98-1.94-5.96.65,1.99,1.3,3.98,1.94,5.96Z"/>
      <path class="cls-9" d="M43.85,35c-1.97.02-3.95.04-5.92.05,1.97-.02,3.95-.04,5.92-.05Z"/>
      <path class="cls-4" d="M9.91,35.35c-.31.52-.62,1.03-.93,1.55.31-.52.62-1.03.93-1.55Z"/>
      <polygon class="cls-12" points="11.91 88.93 11.76 88.81 11.59 88.54 11.72 88.49 11.94 88.83 11.91 88.93"/>
      <path class="cls-7" d="M70.97,40.96c-.01.7-.03,1.39-.04,2.09-.34.3-.67.61-1.01.91-1.68,0-3.37,0-5.05.01-.63.08-1.26.16-1.89.23-.36,2.92-.72,5.84-1.07,8.76-1.34.08-2.68.17-4.01.25-.52-.13-1.04-.26-1.57-.38-.8-.67-1.6-1.34-2.41-2.02-.78-2.55-1.56-5.11-2.33-7.66,1.49-.66,2.99-1.33,4.72-2.1-.12-2.64-.24-5.37-.36-8.11,0,0-.04.1-.03.1s-.03.1-.03.1c5,.04,9.99.09,14.99.13.13.74.25,1.49.38,2.23.05.21,0,.38-.17.53-.04,1.64-.07,3.29-.11,4.93Z"/>
      <path class="cls-12" d="M53.91,50.82c.8.67,1.6,1.34,2.41,2.02,0,0-.33.27-.33.27-.76.84-2.14,1.66-2.17,2.52-.12,3.53-1.09,5.58-5.21,5.54-1.38-.01-2.77,1.87-4.16,2.89-6.58-2.09-7.56-1.39-7.57,5.49,0,4.82.13,9.65-.08,14.46-.06,1.38-1.13,2.73-1.73,4.09.04-7.28.13-14.56.11-21.85,0-2.85.66-5.14,4.04-4.85,3.89.34,5.49-1.07,5.13-5.04-.09-.99,1.01-2.08,1.56-3.12,0,2.01,0,4.03,0,6.22,2.41-.4,4.1-.68,6.01-1,0-2.06,0-3.67,0-5.29.66-.78,1.33-1.57,1.99-2.35Z"/>
      <path class="cls-4" d="M35.86,43.97v8.63h-8.59v-8.57c2.89,0,5.77,0,8.65,0,0,0-.06-.06-.06-.06Z"/>
      <path class="cls-5" d="M55.94,32.95c.12,2.73.24,5.47.36,8.11-1.73.77-3.23,1.43-4.72,2.1-.75.02-1.49.03-2.23.05-.78-1.99-1.56-3.98-2.35-5.97.18-.66.36-1.31.55-1.97,1.85-.73,3.71-1.46,5.56-2.19.95-.04,1.89-.09,2.84-.13Z"/>
      <path class="cls-9" d="M15.79,70.68c-1.91-.03-3.82-.06-5.74-.09-.08-1.47-.4-2.98-.18-4.4.17-1.11.86-2.88,1.58-3.02,1.46-.29,4.34.11,4.43.61.4,2.22,0,4.58-.1,6.89Z"/>
      <path class="cls-9" d="M25.65,72c.1,1.99.21,3.99.31,5.98-1.05.45-2.09.91-3.14,1.36-.96,0-1.92-.02-2.87-.02,0-2.83-.02-5.66-.03-8.49.97,0,1.95,0,2.92,0,.94.39,1.87.78,2.81,1.17Z"/>
      <path class="cls-3" d="M19.92,70.84c0,2.83.02,5.66.03,8.49-.77-1.11-1.7-2.15-2.26-3.36-.78-1.69-1.29-3.52-1.91-5.29.11-2.31.5-4.67.1-6.89-.09-.51-2.98-.9-4.43-.61-.72.14-1.41,1.91-1.58,3.02-.22,1.42.09,2.93.18,4.4-.6-2.64-1.2-5.28-1.93-8.53h9.01c.93,2.91,1.86,5.84,2.79,8.76Z"/>
      <path class="cls-5" d="M51.92,53.17v5.29c-1.91.32-3.6.6-6.01,1,0-2.19,0-4.2,0-6.22,2-.02,4-.04,6.01-.07Z"/>
      <path class="cls-3" d="M25.65,72c-.94-.39-1.87-.78-2.81-1.17.94.39,1.87.78,2.81,1.17Z"/>
      <path class="cls-3" d="M22.82,79.35c1.05-.45,2.09-.91,3.14-1.36.11,3.12-1.71,1.78-3.14,1.36Z"/>
      <path class="cls-12" d="M34.94,88.18c-.32.11-.65.21-.97.32.32-.11.65-.21.97-.32Z"/>
      <path class="cls-1" d="M55.99,53.1s.33-.26.33-.27c.52.13,1.04.25,1.57.38,1,2,2.44,3.91,2.91,6.03.77,3.51.91,7.16,1.32,10.74.27.28.53.56.8.84,2.62-.02,5.25-.05,7.87-.07.04-.3.17-.56.39-.78.57-2.37,1.58-4.74,1.64-7.12.2-8.84.08-8.85,9.07-8.83.5,0,1.01.06,1.5,0,3.47-.48,4.93.97,4.52,4.48-.42,3.55.61,5.77,4.85,5.64,1.02-.03,2.98,1.71,3.01,2.67.23,9.46.14,18.92.14,28.43-2.29.61-4.15,1.1-6,1.6-.39.39-.78.77-1.17,1.16-.17,5.72-3.67,6.38-8.46,6.11-6.43-.36-12.91-.22-19.36-.04-3.33.1-5.51-.37-5.16-4.47.06-.72-1.44-1.57-2.22-2.36-.26,0-.48-.09-.65-.27-1.31-.08-2.62-.16-3.92-.23-.95.09-1.91.19-2.86.28-.06-9.73-.17-19.47-.1-29.2,0-1.23,1.06-3.55,1.54-3.53,8.46.43,8.69-5.18,8.48-11.18ZM71.5,96.79c.01-2.6.03-5.19.04-7.79-.22-.32-.45-.64-.67-.96-.29-.55-.64-1.6-.85-1.57-5.04.7-6.32-2.7-7.24-6.52-.28-.29-.57-.57-.85-.86-2.69,0-5.39,0-8.08.01l-.81.84c.02,2.67.05,5.34.07,8.01.28.25.56.5.85.75,1.86.74,3.72,1.48,4.5,1.79,1.51,2.66,2.58,4.53,3.64,6.41.31.06.56.2.77.44,2.7,2.57,5.39,2.6,8.05-.06.12-.25.32-.41.58-.49Z"/>
      <path class="cls-9" d="M71.24,35.51c-.13-.74-.25-1.49-.38-2.23,1.03-1.01,2.66-1.87,2.95-3.06.49-1.98.12-4.18.11-6.28,0,0-.1.1-.1.1,2,.04,4,.07,6,.11.04.32.1.64.12.97q.71,9.62-8.71,10.38Z"/>
      <path class="cls-5" d="M79.83,24.15c-2-.04-4-.07-6-.11.06-1.98.13-3.96.19-5.94,1.76-.13,3.52-.25,5.81-.41v6.47Z"/>
      <path class="cls-8" d="M62.11,69.99c-.41-3.59-.55-7.24-1.32-10.74-.47-2.12-1.9-4.03-2.91-6.03,1.34-.08,2.68-.17,4.01-.25.07,5.67.14,11.35.21,17.02Z"/>
      <path class="cls-8" d="M70.77,70.76c-2.62.02-5.25.05-7.87.07,2.62-.03,5.25-.05,7.87-.07Z"/>
      <path class="cls-9" d="M70.97,40.96c.04-1.64.07-3.29.11-4.93-.04,1.64-.07,3.29-.11,4.93Z"/>
      <path class="cls-9" d="M62.97,44.21c.63-.08,1.26-.16,1.89-.23-.63.08-1.26.16-1.89.23Z"/>
      <path class="cls-9" d="M69.91,43.96c.34-.3.67-.61,1.01-.91-.34.3-.67.61-1.01.91Z"/>
      <path class="cls-6" d="M80.85,42.38c-.12.26-.3.45-.56.58.19-.19.37-.38.56-.58Z"/>
      <path class="cls-12" d="M56.62,107.69c1-.59,2.01-1.68,3.01-1.68,9.43-.06,18.85.06,28.28.12-1.01.61-2.01,1.74-3.02,1.75-9.42.05-18.85-.1-28.27-.19Z"/>
      <path class="cls-12" d="M88.71,97.99c.39-.39.78-.77,1.17-1.16.35.16.71.33,1.06.49-.58.58-1.17,1.15-1.75,1.73-.16-.35-.32-.7-.47-1.06Z"/>
      <path class="cls-5" d="M73.93,23.94c0,2.1.38,4.3-.11,6.28-.29,1.19-1.92,2.05-2.95,3.06-5-.04-9.99-.09-14.98-.13-.2-1.6-.4-3.2-.6-4.8.39-.66.77-1.32,1.16-1.98,3.64,0,7.28.18,10.9-.08,1.29-.09,2.5-1.21,3.75-1.87.95-.16,1.89-.32,2.84-.48Z"/>
      <path class="cls-4" d="M55.29,28.35c.2,1.6.4,3.2.6,4.8,0,0,.03-.1.02-.1-.21-1.56-.41-3.13-.62-4.7Z"/>
      <path class="cls-8" d="M48.93,96.73c1.31.08,2.62.16,3.92.23-1.31-.08-2.62-.16-3.92-.23Z"/>
      <path class="cls-3" d="M70.86,88.05c.22.32.45.64.67.96-.16.31-.32.62-.48.93-.33,0-.64-.06-.95-.18-2.17-.28-4.33-.56-7.38-.95.38,3.05.66,5.23.94,7.41.11.26.18.54.22.83l-1.02.31c-.21-.23-.46-.38-.77-.44,0-2.58,0-5.15,0-8.2h-8.15c-.28-.25-.56-.5-.85-.75-.02-2.67-.05-5.34-.07-8.01.27-.28.54-.56.81-.84,2.69,0,5.39,0,8.08-.01.28.29.57.57.85.86,0,2.56,0,5.13,0,8.09h8.08ZM59.12,80.33c-.67-.04-1.35-.07-2.02-.11-.79,1.24-2.21,2.48-2.19,3.7.02,1.09,1.77,3.13,2.5,3.02,1.31-.19,3.1-1.49,3.44-2.68.3-1.06-1.09-2.6-1.73-3.93Z"/>
      <path class="cls-8" d="M70.86,88.05h-8.08c0-2.96,0-5.53,0-8.09.92,3.82,2.2,7.21,7.24,6.52.21-.03.56,1.02.85,1.57Z"/>
      <path class="cls-8" d="M53.95,88.71h8.15c0,3.04,0,5.62,0,8.2-1.07-1.88-2.13-3.75-3.64-6.41-.78-.31-2.64-1.05-4.5-1.79Z"/>
      <path class="cls-8" d="M62.86,97.34c.34-.1.68-.21,1.02-.31,2,0,4,0,6.01,0,.34.08.68.17,1.02.25-2.66,2.66-5.35,2.64-8.05.06Z"/>
      <path class="cls-8" d="M71.05,89.94c.16-.31.32-.62.48-.93-.01,2.6-.02,5.19-.04,7.79-.04-.35-.19-.63-.45-.85,0-2,0-4,0-6.01Z"/>
      <path class="cls-8" d="M53.03,79.94c.02,2.67.05,5.34.07,8.01-.02-2.67-.05-5.34-.07-8.01Z"/>
      <path class="cls-8" d="M61.93,79.1c-2.69,0-5.39,0-8.08.01,2.69,0,5.39,0,8.08-.01Z"/>
      <path class="cls-3" d="M71.05,95.94c.25.21.4.5.45.85-.26.08-.46.24-.58.49-.34-.08-.68-.17-1.02-.25.04-.29.1-.56.21-.83.31-.1.63-.18.95-.25Z"/>
      <path class="cls-9" d="M59.12,80.33c.64,1.33,2.03,2.87,1.73,3.93-.34,1.19-2.13,2.49-3.44,2.68-.74.11-2.48-1.93-2.5-3.02-.02-1.22,1.4-2.47,2.19-3.7.67.04,1.35.07,2.02.11Z"/>
      <path class="cls-2" d="M63.66,96.21c-.27-2.18-.55-4.36-.93-7.41,3.05.39,5.21.67,7.38.96,0,0-.25.28-.25.28-4.9-.94-6.87,1.05-5.94,5.94l-.25.23Z"/>
      <path class="cls-2" d="M71.05,95.94c-.32.07-.64.15-.95.25l-.24-.22c0-1.98,0-3.96,0-5.94,0,0,.24-.27.25-.28.3.12.62.18.95.18,0,2,0,4,0,6.01Z"/>
      <path class="cls-2" d="M70.1,96.2c-.1.27-.17.55-.21.83-2,0-4,0-6.01,0-.04-.29-.11-.56-.22-.83,0,0,.25-.23.25-.23,1.98,0,3.96,0,5.95,0l.24.22Z"/>
      <path class="cls-9" d="M69.86,95.98c-1.98,0-3.96,0-5.95,0-.93-4.89,1.04-6.88,5.95-5.95,0,1.98,0,3.96,0,5.94Z"/>
    </g>
  </g>
</svg>