<?xml version="1.0" encoding="UTF-8"?>
<svg id="Layer_2" data-name="Layer 2" xmlns="http://www.w3.org/2000/svg" viewBox="0 0 104.09 116.86">
  <defs>
    <style>
      .cls-1 {
        fill: #eccbcc;
      }

      .cls-1, .cls-2, .cls-3, .cls-4, .cls-5, .cls-6, .cls-7 {
        stroke-width: 0px;
      }

      .cls-2 {
        fill: #130909;
      }

      .cls-3 {
        fill: #15140b;
      }

      .cls-4 {
        fill: #d72127;
      }

      .cls-5 {
        fill: #e4dbdb;
      }

      .cls-6 {
        fill: #5cb04e;
      }

      .cls-7 {
        fill: #071309;
      }
    </style>
  </defs>
  <g id="Fruit">
    <g>
      <path class="cls-4" d="M23.95,110.3c-1.4-.97-2.8-1.95-4.2-2.92,1.23-7.67.29-8.79-5.79-6.92-2.92.23-4.22-.94-4.03-4.04.18-2.97-.09-5.96-.15-8.94,1.15-7.55.41-8.45-5.82-7.04-2.16.15-3.97.05-3.95-2.95.12-15.29.14-30.57.22-45.86,0-.28.29-.56.61-1.16,2.73-.16,5.65-.33,8.89-.52.17-3.14.34-6.07.52-9.42,3.29-.16,6.39-.32,9.49-.47,4.79.1,9.6.39,14.39.26,4.05-.12,6.53,1.02,6.02,5.56-.4,3.57,1.34,4.59,4.67,4.53,3.21-.06,5.79-.42,5.33-4.49-.46-4.13,1.35-5.9,5.39-5.54,3.45.31,4.68-1.28,4.72-4.66.03-2.2.91-4.39,1.41-6.59,5.98.58,11.96,1.15,17.93,1.73,1.86,8.51,2.01,8.67,10.48,9.85-1.31,7.35,3.04,9.78,9.8,9.79.18,2.38.33,4.5.49,6.61-.12,12.63-.3,25.27-.3,37.9,0,3.43-.84,5.59-4.76,5.02-4.16-.6-5.82,1.14-5.28,5.28.19,1.47.03,2.99.03,4.49q0,9.02-8.81,10.53c-.27.05-.49.4-.92.76-.07.82-.37,1.83-.22,2.77.8,4.86-1.54,5.98-5.93,5.73-3.41-.19-6.86.47-10.3.74-1.41-.99-2.81-1.97-4.21-2.96,1.17-7.55.99-7.78-6.23-7.79-2.65,0-5.31.2-7.94-.04-4.03-.36-5.97,1.05-5.38,5.28.54,3.84-1.44,4.8-4.95,4.74-3.74-.06-7.5.47-11.25.74ZM20.3,40.24h-9.7v19.63h9.61c0-6.81,0-13.26,0-19.72h9.73v-9.58h-9.65v9.66Z"/>
      <path class="cls-6" d="M61.67,9.12c-.5,2.2-1.39,4.39-1.41,6.59-.04,3.38-1.27,4.97-4.72,4.66-4.04-.37-5.85,1.41-5.39,5.54.46,4.07-2.12,4.43-5.33,4.49-3.34.06-5.07-.95-4.67-4.53.5-4.55-1.97-5.68-6.02-5.56-4.79.14-9.59-.15-14.39-.26-.18-.76-.37-1.52-.56-2.27.41-2.34.82-4.67,1.42-8.06-3.09.76-4.87,1.2-6.65,1.63-6.16.34-3.96-4.3-4.3-7.34C9.21.28,11.73.21,14.45.23c8.45.07,16.89.02,25.62.02.2,4.52.28,8.54,5.44,9.56,2.36.46,3.74.56,4.08-2.4.89-7.9,1.77-8.39,10.25-6.47.61,2.73,1.22,5.45,1.83,8.18Z"/>
      <path class="cls-2" d="M63.9,110.32c3.43-.28,6.89-.94,10.3-.74,4.39.25,6.73-.87,5.93-5.73-.15-.94.14-1.95.22-2.77.43-.36.65-.71.92-.76q8.81-1.52,8.81-10.53c0-1.5.16-3.02-.03-4.49-.54-4.14,1.12-5.88,5.28-5.28,3.92.57,4.76-1.59,4.76-5.02,0-12.63.18-25.27.3-37.9,1.16.08,2.31.16,3.71.25v49.76h-9.55v19.95h-9.83c-.21,3.45-.39,6.5-.59,9.8h-19.75c-.17-2.31-.32-4.43-.47-6.54Z"/>
      <path class="cls-2" d="M23.95,110.3c3.75-.27,7.5-.8,11.25-.74,3.5.05,5.49-.9,4.95-4.74-.6-4.23,1.35-5.64,5.38-5.28,2.63.24,5.29.04,7.94.04,7.22,0,7.4.24,6.23,7.79-4.91,0-9.82,0-15.13,0v9.42h-20.16c-.16-2.28-.3-4.38-.45-6.49Z"/>
      <path class="cls-3" d="M13.95,100.45c6.08-1.87,7.02-.75,5.79,6.92-1.62-.1-3.23-.19-5.28-.31-.17-2.21-.34-4.41-.52-6.61Z"/>
      <path class="cls-2" d="M3.95,80.43c6.23-1.41,6.97-.51,5.82,7.04-1.63-.1-3.26-.2-5.27-.32-.18-2.26-.37-4.49-.55-6.72Z"/>
      <path class="cls-7" d="M13.94,11.35c1.78-.44,3.56-.88,6.65-1.63-.6,3.39-1.01,5.72-1.42,8.06-1.45,0-2.91,0-4.7,0-.19-2.31-.36-4.37-.54-6.42Z"/>
      <path class="cls-1" d="M20.21,40.16v19.72h-9.61v-19.63h9.7l-.09-.09ZM18.26,50.25c0-1.65.36-3.42-.11-4.92-.38-1.2-1.77-2.09-2.71-3.12-1.06,1.07-2.88,2.05-3.04,3.24-.42,3.25-.39,6.62,0,9.87.12,1.05,1.92,2.66,2.93,2.64,1-.02,2.43-1.62,2.82-2.8.49-1.49.12-3.26.12-4.92Z"/>
      <path class="cls-1" d="M20.3,40.24v-9.66h9.65v9.58c-3.29,0-6.51,0-9.73,0,0,0,.09.09.09.09ZM25.58,39.87c1.35-2.39,2.66-3.68,2.48-4.7-.19-1.11-1.78-1.98-2.75-2.95-1.01,1.1-2.58,2.09-2.85,3.35-.18.86,1.45,2.11,3.12,4.3Z"/>
      <path class="cls-5" d="M18.25,50.25c0,1.65.37,3.43-.12,4.92-.39,1.18-1.82,2.78-2.82,2.8-1,.02-2.8-1.59-2.93-2.64-.39-3.26-.42-6.63,0-9.87.16-1.19,1.98-2.17,3.04-3.24.94,1.03,2.33,1.91,2.71,3.12.47,1.5.11,3.27.11,4.92Z"/>
      <path class="cls-5" d="M25.58,39.87c-1.68-2.2-3.3-3.44-3.12-4.3.27-1.26,1.84-2.24,2.85-3.35.98.97,2.56,1.84,2.75,2.95.18,1.02-1.14,2.31-2.48,4.7Z"/>
    </g>
  </g>
</svg>