<?xml version="1.0" encoding="UTF-8"?>
<svg id="Layer_2" data-name="Layer 2" xmlns="http://www.w3.org/2000/svg" viewBox="0 0 110.93 132.69">
  <defs>
    <style>
      .cls-1 {
        fill: #4ab293;
      }

      .cls-1, .cls-2, .cls-3, .cls-4, .cls-5, .cls-6, .cls-7, .cls-8, .cls-9, .cls-10, .cls-11 {
        stroke-width: 0px;
      }

      .cls-2 {
        fill: #01fc02;
      }

      .cls-3 {
        fill: #46bc8c;
      }

      .cls-4 {
        fill: #40c082;
      }

      .cls-5 {
        fill: #cae3d2;
      }

      .cls-6 {
        fill: #06f409;
      }

      .cls-7 {
        fill: #13e31c;
      }

      .cls-8 {
        fill: #2dde4d;
      }

      .cls-9 {
        fill: #1bd828;
      }

      .cls-10 {
        fill: #585858;
      }

      .cls-11 {
        fill: #071309;
      }
    </style>
  </defs>
  <g id="Fruit">
    <g>
      <path class="cls-11" d="M18.69,34.01c4.42-.04,8.84-.25,13.24-.05,2.87.13,3.9-.89,3.46-3.62.74-4.13-.96-5.79-5.08-5-1.96-.02-3.1-.16-4.27-2.64-1.38-2.93-4.89-4.85-8.3-7.95V0h17.29c1.06,6.9,2.47,8.11,9.3,8.12,11.63,0,23.26,0,35.11,0,.18,1.71.33,3.15.49,4.59,0,3.95,0,7.9,0,12.11-2.17.16-3.63.47-5.06.35-4.04-.36-3.99,2.18-4.1,5.08-.13,3.37,1.42,4.07,4.27,3.46h13.23c.86,6.81,2.25,8.16,9.04,9.02.15,1.32.32,2.74.48,4.15-.03,2.97.06,5.95-.12,8.9-.19,3.07,1.36,3.73,3.95,3.27,1.41.27,2.82.55,4.61.9.16,1.25.33,2.63.5,4.01v29.72c-3.53.25-6.11.44-9.2.66v16.34c-3.12.25-5.71.46-8.37.67-.16.94-.46,1.6-.35,2.2,1.01,5.76-2.12,6.74-6.91,6.36-3.54-.28-7.13-.06-10.75-.06-.25,3.5-.44,6.07-.67,9.2h-30.84c-1.27-.25-2.53-.49-3.98-.78-.09-1.34-.18-2.63-.27-3.91.77-3.89-.79-5.49-4.76-5.15-3.1.26-6.24.16-9.36.22-4.7,1.19-3.58-4.99-7.2-5.67-1.71-.32-3.07-2.56-5.39-4.65-.2-5.61,2.19-13.95-8.66-15.51v-33.79c2.68-.15,5.42-.3,8.58-.47v-16.71c3.13-.18,5.87-.35,9.12-.54v-7.08c.33-.34.66-.67.99-1.01ZM65.93,116.01c.23-.24.45-.48.68-.72,2.7-.09,5.4-.18,8.1-.27l.48.13.49-.1c2.66.17,5.32.34,8.1.52.24-3.49.42-6.1.6-8.71.45-.04.9-.08,1.36-.12,1.29,0,2.58,0,3.87,0,.64-.03,1.28-.05,1.92-.08.51-1.35,1.38-2.67,1.45-4.04.22-4.21.13-8.44.16-12.67.54-.11,1.07-.22,1.61-.34,2.63-.31,6.97,2.36,7.41-2.04.75-7.66.21-15.44.21-23.38h-8.68s-.32-.11-.32-.11c-.11-4.08-.09-8.16-.38-12.22-.11-1.55-.95-3.05-1.45-4.57-.63-.03-1.27-.05-1.9-.08-1.83-.06-3.65-.12-5.48-.17-.09-.16-.21-.28-.37-.36.06-9.99.9-8.18-8.41-8.37-1.49-.03-2.99-.14-4.46.02-3.32.34-5.08-.78-4.63-4.39.42-3.4-1.38-4.37-4.44-4.05-1.48.15-2.97.09-4.46.12v-8.88h17.19v-8.08c-14.85,0-29.39,0-43.93,0V4.5h-8.55v8.49h8.62v8.38h17.9c-.16,3.28-.3,5.89-.42,8.49h-8.29c-.26,3.24-.46,5.64-.71,8.63h-17.23v6.48c-.08.64-.16,1.28-.24,1.91h-9.07c0,6.13,0,11.56,0,16.99-2.75.14-5.5.27-8.82.44,0,5.75,0,11.14,0,16.53q0,8.76,8.79,9.22v16.7h7.99c.44.44.87.87,1.31,1.31v7.47c3.07-.17,5.9-.32,8.73-.47,2.91.1,5.83.2,8.74.29.03.23.13.41.3.56v7.87h26.08c0-2.64,0-4.72,0-6.8.06-.33.11-.66.17-.99Z"/>
      <path class="cls-10" d="M39.62,129.05h30.84c.23-3.14.41-5.7.67-9.2,3.63,0,7.21-.23,10.75.06,4.78.38,7.92-.59,6.91-6.36-.1-.6.19-1.26.35-2.2,2.66-.21,5.24-.42,8.37-.67v-16.34c3.09-.22,5.67-.4,9.2-.66v-29.72c1.31.09,2.62.17,4.22.28v33.85c-2.92.18-5.83.36-9.11.56v16.48c-3.09.26-5.81.49-8.78.74-.16,2.68-.31,5.12-.49,8.08h-17.13c-.26,3.09-.47,5.67-.73,8.72-11,0-21.78.08-32.55-.16-.87-.02-1.69-2.26-2.53-3.47Z"/>
      <path class="cls-10" d="M75.03,33.7c-2.85.61-4.4-.09-4.27-3.46.11-2.91.07-5.44,4.1-5.08,1.43.13,2.89-.18,5.06-.35,0-4.22,0-8.16,0-12.11,2.75-.24,4.26.48,4.02,3.77-.3,4.24-.07,8.51-.07,12.3-2.47,3.28-9.02-2.34-8.85,4.92Z"/>
      <path class="cls-10" d="M21.25,119.44c3.12-.06,6.26.04,9.36-.22,3.97-.34,5.52,1.26,4.76,5.15-4.39,0-8.79,0-13.2,0-.39-2.1-.65-3.51-.92-4.93Z"/>
      <path class="cls-10" d="M101.61,59.05c-2.6.46-4.14-.2-3.95-3.27.18-2.96.09-5.94.12-8.9,1.15.1,2.29.2,3.83.33v11.84Z"/>
      <path class="cls-10" d="M30.32,25.34c4.12-.79,5.82.86,5.08,5-1.42-.22-2.85-.43-4.43-.67-.22-1.5-.44-2.91-.65-4.33Z"/>
      <path class="cls-10" d="M18.69,34.01c-.33.34-.66.67-.99,1.01.33-.34.66-.67.99-1.01Z"/>
      <path class="cls-6" d="M89.64,47.22c.63.03,1.27.05,1.9.08.04,4.24-.05,8.48.2,12.7.08,1.39,1.06,2.73,1.63,4.09,0,0,.32.11.32.11,1.42.29,2.91.4,4.22.94,1.03.42,2.63,1.35,2.65,2.09.2,7.08.12,14.16.12,21.08-2.42.53-4.17.92-5.92,1.3-.54.11-1.07.22-1.6.34-.5,1.44-1.34,2.85-1.43,4.32-.23,4.12-.15,8.26-.19,12.4-.64.03-1.28.05-1.92.08-1.29,0-2.58,0-3.87,0-.45.04-.9.08-1.36.12-.25-.03-.5-.02-.75.02q.21-7.93-6.79-8.13c-.49-.6-.98-1.19-1.47-1.79,0-1.59-.01-3.17-.02-4.76-.48-5.33-4.28-2.64-6.88-2.85-.59-.16-1.18-.32-1.78-.49-1.09-2.28,2.24-5.74-1.93-7.2-2.02.06-4.05.11-6.07.17-1.96-7.35-1.81-7.51,5.23-8.86,1-.19,2.34-1.26,2.61-2.19,1.9-6.65,2.13-6.84,8.81-4.76-.01,1.91-.03,3.82-.04,5.73-2.44,3.12-2.64,6.19.25,9.16,2.75-.02,5.49-.03,8.24-.05,2.59,0,5.18-.02,7.77-.02,3.96-1.06,1.56-4.19,1.9-6.37.06-.36-1.8-1.01-2.77-1.53-2.27-.05-4.54-.11-6.82-.16h.03c-.12-2.56-.25-5.12-.37-7.68-1.04-.69-2-1.58-3.14-2.01-1.6-.6-3.32-.87-4.99-1.27,0-1.6-.02-3.19-.03-4.79.46-.58.91-1.15,1.37-1.73q7.21-.33,7.68-7.47c1.74-.21,3.48-.42,5.23-.63Z"/>
      <path class="cls-2" d="M39.69,115.93c-.18-.14-.28-.33-.3-.55.04-2.61.07-5.22.11-7.83,2.68-.22,5.36-.45,8.05-.68.71-.69,2.08-1.46,2.01-2.06-.53-4.46,1.94-5.21,5.53-4.98.51.03,1.07-.6,1.6-.93,5.63-.04,11.25-.07,16.88-.11.44.07.87.14,1.31.21.05,2.34.09,4.67.14,7.01-.44.28-.89.56-1.33.84q-7.98.12-7.83,6.16c-2.77.95-5.55,1.9-8.32,2.85-.97,1.88-1.93,3.75-3.01,5.85h-13.14c-.63-2.16-1.16-3.98-1.7-5.8Z"/>
      <path class="cls-1" d="M48.19,29.86c.13-2.61.26-5.21.43-8.49h-17.9v-8.38l-.07.07h43.93v8.08h-17.19v8.88c-.18.1-.37.2-.56.27-.29-.14-.58-.24-.89-.3-.49-.12-.97-.24-1.46-.36-1.19,0-2.37,0-3.56,0l-1.33.36c-.34.06-.68.12-1.02.19l-.37-.31Z"/>
      <path class="cls-2" d="M21.91,108.08c-.44-.44-.87-.87-1.31-1.31-1.85-.47-3.7-.94-5.95-1.51,0-3.57-.15-7.04.1-10.48.07-.97,1.17-2.41,2.07-2.66,2.36-.65,4.87-.8,7.33-1.09,2.84-.33,4.68.25,4.82,3.81.15,3.79,2.64,5.44,6.45,5.14,1.32-.11,2.65.06,3.98.1.17,1.33.34,2.65.51,3.98-.28,1.03-.56,2.07-.84,3.1-1.78-.08-3.56-.13-5.34-.24-2.96-.19-4.24,1.12-3.71,4.08-1.77.99-3.54,1.97-5.31,2.96-.7-1.55-1.4-3.1-2.11-4.64-.2-.43-.46-.83-.69-1.25Z"/>
      <path class="cls-7" d="M12.65,63.88v-16.99h9.07l.02.13c-.33,4.71-.63,9.36,6.48,8.38.71-.1,1.51.51,2.27.79.07,2.61.15,5.23.22,7.84-3.05.12-6.09.24-9.14.35-2.87-.04-5.73-.08-8.6-.12-.09-.14-.2-.27-.32-.39Z"/>
      <path class="cls-2" d="M21.72,46.88c.08-.64.16-1.28.24-1.91.47-1.53.95-3.05,1.54-4.97,2.83,0,5.63,0,8.43,0q7.84,0,9.53-7.97h6.7l.26,6.05c-.56,3.08-1.12,6.15-1.68,9.23-2.38-.01-4.76-.02-7.14-.04-.32-.17-.63-.35-.95-.52-2.31,0-4.62,0-6.93-.01-.33.14-.66.28-.99.42-3-.05-5.99-.1-8.99-.15l-.02-.13Z"/>
      <path class="cls-9" d="M12.62,90.07q-8.79-.46-8.79-9.22c0-5.39,0-10.79,0-16.53,3.32-.17,6.07-.3,8.82-.44.12.12.23.24.32.39.25,2.9.51,5.8.77,8.7,0,2.68-.02,5.35-.02,8.03-.23,2.89-.45,5.77-.68,8.66-.14.14-.28.28-.42.42ZM5.65,76.93s.02,0,.02,0c0,2.82-.19,5.65.1,8.44.1.94,1.35,2.35,2.19,2.44.83.09,2.57-1.17,2.61-1.91.3-5.56.44-11.14.24-16.7-.04-1.1-1.77-2.14-2.73-3.2-.81,1.32-2.09,2.56-2.34,3.98-.4,2.25-.11,4.62-.11,6.94Z"/>
      <path class="cls-9" d="M39.4,100.08c-1.33-.04-2.66-.2-3.98-.1-3.81.31-6.3-1.35-6.45-5.14-.14-3.56-1.97-4.15-4.82-3.81-2.46.29-4.97.44-7.33,1.09-.9.25-2,1.69-2.07,2.66-.25,3.44-.1,6.91-.1,10.48,2.24.57,4.09,1.04,5.95,1.51-2.42,0-4.85,0-7.99,0,0-5.85,0-11.27,0-16.7.14-.14.28-.28.42-.42,2.83-.06,5.67-.13,8.5-.18,3.23-.93,6.47-1.86,9.71-2.8.48.86.95,1.72,1.43,2.58-3.7,5.59-2.61,8.13,3.74,8.84,1.1.12,2.15.64,3.23.98-.08.33-.15.67-.23,1Z"/>
      <path class="cls-7" d="M57.38,30.02c1.49-.03,2.99.03,4.46-.12,3.06-.32,4.86.65,4.44,4.05-.45,3.6,1.31,4.73,4.63,4.39,1.47-.15,2.98-.05,4.46-.02,9.31.19,8.47-1.62,8.41,8.36-.33-.15-.65-.3-.98-.44-.17-1.93-.34-3.85-.55-6.24-4.67,0-8.95-.06-13.23.02-2.83.06-4.54-.96-4.31-4.01.33-4.43-2.17-4.42-5.27-3.64-.61,1.65-1.17,3.14-1.72,4.63-.27.03-.54.05-.82.06l-.18-6.02c.18-.23.22-.48.09-.75.19-.08.38-.17.56-.28Z"/>
      <path class="cls-4" d="M65.85,113.03q-.15-6.04,7.83-6.16c.59.38,1.19.75,1.78,1.13.09,2,.18,4.01.28,6.01l-.22-.07c-.27.36-.54.72-.81,1.08-2.7.09-5.4.18-8.1.27-.25-.76-.51-1.51-.76-2.27Z"/>
      <path class="cls-1" d="M30.71,12.99h-8.62V4.5h8.55c0,2.81,0,5.68,0,8.55,0,0,.07-.07.07-.07Z"/>
      <path class="cls-4" d="M30.03,111c-.53-2.96.75-4.27,3.71-4.08,1.78.11,3.56.16,5.34.24.22.03.36.16.42.38-.03,2.61-.07,5.22-.1,7.84-2.91-.1-5.83-.2-8.74-.29-.21-1.36-.41-2.72-.62-4.08Z"/>
      <path class="cls-3" d="M82.81,46.24c.32.15.65.29.98.44.16.08.29.2.38.36.08.27.16.54.25.8q-.47,7.14-7.68,7.47c-.59-.44-1.17-.88-1.76-1.32-.87-6.1,2.64-7.78,7.84-7.75Z"/>
      <path class="cls-7" d="M48.17,32.03c-2.28,0-4.55,0-6.7,0q-1.69,7.97-9.53,7.97c-2.8,0-5.6,0-8.43,0-.6,1.91-1.07,3.44-1.54,4.97,0-1.95,0-3.89,0-6.48h17.23c.24-2.99.44-5.39.71-8.63,2.83,0,5.56,0,8.29,0,0,0,.37.31.37.3-.14.14-.16.3-.06.48-.11.46-.22.92-.33,1.38Z"/>
      <path class="cls-9" d="M94.76,89.61c1.75-.38,3.5-.77,5.92-1.3,0-6.92.08-14.01-.12-21.08-.02-.74-1.61-1.67-2.65-2.09-1.32-.54-2.81-.65-4.22-.94,2.64,0,5.27,0,8.68,0,0,7.94.54,15.73-.21,23.38-.43,4.39-4.77,1.73-7.41,2.04Z"/>
      <path class="cls-1" d="M65.77,117v6.8c-2.77,0-5.45,0-8.12,0,.03-1.93.06-3.86.1-5.79.32-.33.63-.66.95-1l4.92-.07c.72.02,1.44.04,2.15.05Z"/>
      <path class="cls-9" d="M57.74,118.01c-.03,1.93-.06,3.86-.1,5.79-5.76,0-11.51,0-17.96,0,0-2.73,0-5.3,0-7.88.53,1.82,1.07,3.65,1.7,5.8h13.14c1.08-2.1,2.05-3.98,3.01-5.85.05.37.09.74.14,1.1.02.34.05.69.07,1.03Z"/>
      <path class="cls-9" d="M93.37,64.08c-.57-1.36-1.55-2.7-1.63-4.09-.25-4.22-.16-8.47-.2-12.7.5,1.52,1.34,3.02,1.45,4.57.3,4.06.28,8.15.38,12.22Z"/>
      <path class="cls-9" d="M91.54,106.66c.04-4.13-.04-8.27.19-12.4.08-1.46.93-2.88,1.43-4.32-.04,4.22.05,8.46-.17,12.67-.07,1.37-.94,2.7-1.45,4.04Z"/>
      <path class="cls-9" d="M83.64,106.88c.25-.04.5-.05.75-.02-.18,2.61-.36,5.23-.6,8.71-2.78-.18-5.44-.35-8.1-.52-.06-.37-.11-.74-.17-1.11,0,0,.22.07.22.07q7.02.04,6.91-6.9c.33-.08.66-.15.99-.23Z"/>
      <path class="cls-9" d="M30.03,111c.21,1.36.41,2.72.62,4.08-2.83.15-5.66.31-8.73.47,0-2.99,0-5.23,0-7.47.23.42.49.82.69,1.25.71,1.54,1.41,3.09,2.11,4.64,1.77-.99,3.54-1.97,5.31-2.96Z"/>
      <path class="cls-8" d="M57.67,116.98c-.05-.37-.09-.74-.14-1.1,2.77-.95,5.54-1.9,8.32-2.85.26.76.51,1.51.76,2.27-.23.24-.45.48-.68.72-.77.31-1.55.63-2.32.94-1.64.02-3.28.05-4.92.07-.34-.01-.68-.02-1.02-.04Z"/>
      <path class="cls-9" d="M84.41,47.84c-.09-.27-.17-.53-.25-.8,1.82.06,3.65.12,5.47.17-1.74.21-3.48.42-5.23.63Z"/>
      <path class="cls-9" d="M85.74,106.74c1.29,0,2.58,0,3.87,0-1.29,0-2.58,0-3.87,0Z"/>
      <path class="cls-4" d="M63.62,116.95c.77-.31,1.55-.63,2.32-.94-.05.33-.11.66-.17.99-.72-.02-1.44-.04-2.15-.05Z"/>
      <path class="cls-8" d="M75.52,113.94c.05.37.11.74.17,1.11,0,0-.49.1-.49.1,0,0-.48-.13-.48-.13.27-.36.54-.72.81-1.08Z"/>
      <path class="cls-3" d="M73.56,98.79c-5.63.04-11.25.07-16.88.11-2.69-.29-5.38-.58-8.07-.86.06-2.38.11-4.75.16-7.13l2.15-1.58c.5,0,1,0,1.51,0,2.08,3.58,3.47.15,5.14-.5.05.32.08.64.09.97.85,2.77-3.01,7.34,2.89,8.15,5.6.77,6.49-.71,5.31-8.04.28-.34.56-.69.84-1.03.59.16,1.18.32,1.78.48,2.29.95,4.58,1.9,6.88,2.85,0,1.59.02,3.17.02,4.76-.6.61-1.21,1.22-1.82,1.83Z"/>
      <path class="cls-8" d="M75.35,66.05c-6.67-2.08-6.91-1.89-8.81,4.76-.27.93-1.61,2-2.61,2.19-7.04,1.34-7.19,1.5-5.23,8.86-.33.39-.67.78-1,1.17-.68-.69-1.35-1.38-2.03-2.07.11-8.44.16-6.67-6.97-6.93-.18-.28-.2-.56-.08-.87,2.95-.72,5.9-1.44,8.85-2.15h6.39c.83-2.78,1.43-4.79,2.03-6.81,3.17-.79,6.34-1.57,9.52-2.36,1.67.41,3.4.67,4.99,1.27,1.14.43,2.1,1.32,3.14,2.01-2.73.31-5.45.62-8.18.93Z"/>
      <path class="cls-3" d="M75.39,61.83c-3.17.79-6.34,1.57-9.52,2.36,0,0-.23-.19-.23-.19.04-2.69.07-5.37.11-8.06-.03-.3-.05-.61-.04-.92,2.65.07,5.3.14,7.96.21.57.6,1.13,1.2,1.7,1.81,0,1.6.02,3.19.03,4.79Z"/>
      <path class="cls-1" d="M83.64,106.88c-.33.08-.66.15-.99.23-1.32-.06-2.63-.11-3.95-.17-1.23-.31-2.46-.61-3.68-.92-.05-2.34-.09-4.67-.14-7.01.66-.09,1.32-.17,1.98-.26q7,.2,6.79,8.13Z"/>
      <path class="cls-5" d="M83.79,80.89c-2.75.02-5.49.03-8.24.05.06-2.7.12-5.39.18-8.09,2.72-.02,5.44-.03,8.16-.05,0,0-.03,0-.03,0-.03,2.7-.06,5.39-.08,8.08Z"/>
      <path class="cls-3" d="M83.9,72.8c-2.72.02-5.44.03-8.17.05-.14-.36-.29-.72-.43-1.08.01-1.91.03-3.82.04-5.73,2.73-.31,5.45-.62,8.18-.93.12,2.56.25,5.12.37,7.68Z"/>
      <path class="cls-1" d="M83.79,80.89c.03-2.69.06-5.39.08-8.08,2.27.05,4.54.11,6.82.16.29,2.63.58,5.27.87,7.9-2.59,0-5.18.02-7.77.02Z"/>
      <path class="cls-1" d="M57.7,83.02c.33-.39.67-.78,1-1.17,2.02-.06,4.05-.11,6.07-.17.02,2.62.04,5.23.05,7.84-2.39.09-4.77.18-7.16.27-.02-.32-.05-.65-.09-.97.04-1.93.08-3.87.12-5.81Z"/>
      <path class="cls-8" d="M91.56,80.86c-.29-2.63-.58-5.27-.87-7.9.97.52,2.82,1.17,2.77,1.53-.34,2.18,2.06,5.31-1.9,6.37Z"/>
      <path class="cls-8" d="M64.83,89.52c-.02-2.61-.04-5.23-.05-7.84,4.17,1.45.84,4.92,1.93,7.2-.28.34-.56.69-.84,1.03-.35-.13-.69-.26-1.04-.39Z"/>
      <path class="cls-8" d="M75.31,71.77c.14.36.28.72.43,1.08-.06,2.7-.12,5.39-.18,8.09-2.89-2.98-2.69-6.04-.25-9.17Z"/>
      <path class="cls-8" d="M75.36,92.21c-2.29-.95-4.58-1.9-6.88-2.85,2.6.21,6.4-2.48,6.88,2.85Z"/>
      <path class="cls-8" d="M75.37,57.04c-.57-.6-1.13-1.2-1.7-1.81.43-.42.87-.83,1.3-1.25.59.44,1.17.88,1.76,1.32-.46.58-.91,1.16-1.37,1.73Z"/>
      <path class="cls-8" d="M76.85,98.75c-.66.09-1.32.17-1.98.26-.43-.07-.87-.14-1.31-.21.61-.61,1.21-1.22,1.82-1.83.49.59.98,1.19,1.46,1.79Z"/>
      <path class="cls-9" d="M48.62,98.04c2.69.29,5.38.58,8.07.86-.54.32-1.09.96-1.6.93-3.59-.23-6.07.51-5.53,4.98.07.6-1.31,1.37-2.01,2.06,0-.63,0-1.26-.01-1.88.11-2.17.22-4.34.33-6.51.25-.15.5-.3.76-.43Z"/>
      <path class="cls-3" d="M47.53,104.98c0,.63,0,1.26.01,1.88-2.68.23-5.36.45-8.05.68-.06-.22-.2-.35-.42-.38.28-1.03.56-2.07.84-3.1,2.54.31,5.08.61,7.62.92Z"/>
      <path class="cls-8" d="M75.01,106.02c1.23.31,2.46.61,3.68.92-1.08.35-2.15.7-3.23,1.06-.59-.38-1.19-.75-1.78-1.13.44-.28.89-.56,1.33-.84Z"/>
      <path class="cls-5" d="M48.17,32.03c.11-.46.22-.92.33-1.38.36-.22.72-.44,1.08-.67.44-.12.89-.24,1.33-.36,1.18,0,2.37,0,3.56,0,.49.12.97.24,1.46.36.27.35.53.7.8,1.05.06,2.01.12,4.01.18,6.02-2.83.34-5.65.68-8.48,1.02-.09-2.02-.17-4.04-.26-6.05Z"/>
      <path class="cls-4" d="M54.46,29.63c-1.19,0-2.37,0-3.56,0,1.19,0,2.37,0,3.56,0Z"/>
      <path class="cls-4" d="M49.57,29.98c-.36.22-.72.44-1.08.67-.1-.18-.08-.34.06-.48.34-.06.68-.12,1.02-.18Z"/>
      <path class="cls-4" d="M56.73,31.04c-.27-.35-.54-.7-.8-1.05.31.06.61.16.89.3.12.27.09.52-.09.75Z"/>
      <path class="cls-1" d="M47.53,104.98c-2.54-.31-5.08-.61-7.62-.92-.17-1.33-.34-2.65-.51-3.98.08-.33.15-.67.23-1,.03-.34.06-.69.09-1.03,2.71.14,5.42.29,8.13.43-.11,2.17-.22,4.34-.33,6.51Z"/>
      <path class="cls-5" d="M13.73,72.96c-.26-2.9-.51-5.8-.77-8.7,2.87.04,5.73.08,8.6.12-.06,2.79-.11,5.58-.16,8.38-2.56.07-5.11.13-7.67.2Z"/>
      <path class="cls-4" d="M21.41,72.76c.05-2.79.11-5.59.16-8.38,3.05-.12,6.1-.23,9.14-.35,0,0-.05-.05-.05-.05-.34,2.96-.67,5.93-1.01,8.89-2.55.13-5.1.26-7.65.4-.2-.16-.4-.33-.6-.5Z"/>
      <path class="cls-4" d="M21.75,47.02c3,.05,5.99.1,8.99.14.11,2.82.22,5.63.33,8.45-.19.19-.38.39-.58.58-.76-.28-1.56-.89-2.27-.79-7.11.98-6.81-3.67-6.48-8.38Z"/>
      <path class="cls-4" d="M30.71,64.03c-.07-2.62-.15-5.23-.22-7.84.19-.19.39-.38.58-.57.53.13,1.07.25,1.6.38.61,1.97.72,5.2,1.93,5.68,3.56,1.41,2.6-2.56,3.72-4.15.18-.25.51-.39.77-.59.27.37.55.75.82,1.12-.08,1.65-.15,3.3-.23,4.95-3.01.32-6.02.64-9.03.96l.05.05Z"/>
      <path class="cls-4" d="M48.42,38.08c2.83-.34,5.65-.68,8.48-1.02.27,0,.55-.03.82-.06q-.18,9.83-6.97,10.25c-.51.6-1.02,1.2-1.53,1.8.04,1.5.08,3.01.12,4.52-.9.42-1.8.84-2.69,1.25.03-2.5.07-5.01.1-7.51.56-3.08,1.12-6.15,1.68-9.23Z"/>
      <path class="cls-5" d="M32.67,55.99c-.53-.13-1.07-.25-1.6-.38-.11-2.82-.22-5.64-.33-8.45.33-.14.66-.28.99-.42,2.31,0,4.62,0,6.93.01.32.17.63.35.94.52-.01,2.6-.03,5.19-.04,7.79-.26.24-.52.48-.79.72-2.03.07-4.07.14-6.1.21Z"/>
      <path class="cls-1" d="M39.56,55.06c.01-2.6.02-5.19.04-7.79,2.38.01,4.76.02,7.14.04-.03,2.5-.07,5.01-.1,7.51-2.36.08-4.72.16-7.09.24Z"/>
      <path class="cls-7" d="M38.65,46.75c-2.31,0-4.62,0-6.93-.01,2.31,0,4.62,0,6.93.01Z"/>
      <path class="cls-2" d="M5.65,76.93c0-2.32-.29-4.69.11-6.94.25-1.42,1.52-2.66,2.34-3.98.95,1.07,2.69,2.1,2.73,3.2.2,5.56.06,11.14-.24,16.7-.04.74-1.78,2-2.61,1.91-.85-.09-2.09-1.51-2.19-2.44-.29-2.79-.1-5.62-.1-8.44,0,0-.02,0-.02,0Z"/>
      <path class="cls-5" d="M21.53,89.46c-2.83.06-5.67.13-8.5.19.23-2.89.45-5.77.68-8.66,2.58.08,5.15.16,7.73.23.03,2.75.06,5.49.09,8.24Z"/>
      <path class="cls-3" d="M21.44,81.22c-2.58-.08-5.15-.16-7.73-.23,0-2.68.02-5.35.02-8.03,2.56-.07,5.12-.13,7.67-.2.19.17.39.34.59.5-.03,1.9-.05,3.79-.08,5.69-.02.62-.03,1.24-.05,1.86-.14.14-.29.27-.43.41Z"/>
      <path class="cls-2" d="M21.92,78.95c.03-1.9.05-3.8.08-5.69,2.55-.13,5.1-.26,7.65-.4,2.67.05,3.01.03,2.91-2.38-.13-3.42.98-4.82,4.52-4.67.82.04,1.73-1.82,2.6-2.81.08-1.65.15-3.3.23-4.95,1.62-.03,3.52.47,4.79-.22,1.79-.97,3.11-2.81,4.63-4.27-.04-1.5-.08-3.01-.11-4.51.51-.6,1.02-1.2,1.52-1.8q6.8-.42,6.97-10.25c.56-1.49,1.11-2.99,1.72-4.63,3.1-.78,5.59-.79,5.27,3.64-.23,3.06,1.48,4.07,4.31,4.01,4.28-.08,8.57-.02,13.23-.02.21,2.39.38,4.32.55,6.24-5.19-.03-8.71,1.65-7.84,7.75-.43.42-.87.83-1.3,1.25-2.65-.07-5.3-.14-7.96-.21-.73.06-1.46.11-2.2.17-1.22,0-2.44,0-3.65,0-.38.03-.77.06-1.15.1-.39.24-.77.48-1.16.73-2.73,2.69-2.66,5.39-.05,8.1,0,0,.22-.04.22-.04-.09,2.31-.17,4.61-.26,6.92-2.95.72-5.9,1.44-8.85,2.15-3.2,0-6.41,0-10.3,0,.54,3.07.97,5.54,1.4,8.02,2.98.58,5.96,1.16,8.95,1.74,1.95.47,3.91.94,5.86,1.4-.7,1.67-1.39,3.34-2.09,5.01-.5,0-1,0-1.51,0-4.75-.02-9.5-.04-14.26-.05-1.34,0-2.67-.01-4.01-.02-.48-.86-.95-1.72-1.43-2.58.02-.44.03-.88.05-1.31-.59-1.4-1.17-2.81-1.76-4.21-1.94-.09-3.87-.19-5.81-.28-.6-.64-1.2-1.27-1.8-1.91Z"/>
      <path class="cls-4" d="M32.67,89.25c1.34,0,2.67.01,4.01.02,1.01.33,2.02.65,3.04.98,0,2.6,0,5.2.01,7.79-.03.34-.06.69-.09,1.03-1.07-.34-2.13-.86-3.23-.98-6.34-.71-7.44-3.25-3.74-8.84Z"/>
      <path class="cls-3" d="M23.72,80.86c1.94.09,3.87.19,5.81.28.59,1.4,1.17,2.81,1.76,4.21-.02.44-.03.88-.05,1.31-3.24.93-6.48,1.86-9.71,2.8-.03-2.75-.06-5.49-.09-8.24.15-.13.29-.27.43-.41.61.01,1.23.03,1.85.04Z"/>
      <path class="cls-2" d="M75.46,108c1.08-.35,2.15-.7,3.23-1.06,1.32.05,2.63.11,3.95.17q.12,6.94-6.91,6.9c-.09-2-.18-4.01-.28-6.01Z"/>
      <path class="cls-4" d="M57.67,116.98c.34.01.68.02,1.02.04-.32.33-.63.66-.95,1-.02-.34-.05-.69-.07-1.03Z"/>
      <path class="cls-5" d="M39.73,98.04c0-2.6,0-5.2-.01-7.79,3.02.22,6.04.44,9.07.66-.05,2.38-.11,4.75-.16,7.13-.26.14-.51.28-.76.43-2.71-.14-5.42-.28-8.13-.43Z"/>
      <path class="cls-5" d="M64.83,89.52c.35.13.69.26,1.04.39,1.18,7.32.28,8.81-5.31,8.04-5.89-.81-2.04-5.38-2.89-8.15,2.39-.09,4.77-.18,7.16-.27Z"/>
      <path class="cls-9" d="M52.44,89.33c.7-1.67,1.39-3.34,2.09-5.01-1.95-.47-3.91-.94-5.86-1.4,0-.66-.02-1.31-.02-1.97l-.09-.17c2.37.06,4.74.12,7.1.17.68.69,1.35,1.38,2.03,2.07-.04,1.94-.08,3.87-.12,5.81-1.67.65-3.06,4.08-5.14.5Z"/>
      <path class="cls-9" d="M48.78,90.91c-3.02-.22-6.04-.44-9.07-.66-1.01-.33-2.03-.65-3.04-.98,4.75.02,9.5.04,14.26.06-.72.53-1.44,1.06-2.15,1.58Z"/>
      <path class="cls-5" d="M39.72,81.17c-.43-2.48-.87-4.96-1.4-8.02,3.89,0,7.09,0,10.3,0-.13.3-.1.59.07.87-.04,2.25-.09,4.51-.13,6.76,0,0,.09.17.09.17-2.97.07-5.95.15-8.92.22Z"/>
      <path class="cls-1" d="M57.46,71c.09-2.31.17-4.61.26-6.92,2.64-.03,5.28-.05,7.93-.08,0,0,.22.19.23.19-.6,2.02-1.2,4.03-2.03,6.81h-6.39Z"/>
      <path class="cls-1" d="M48.56,80.78c.04-2.25.09-4.51.13-6.76,7.14.26,7.09-1.51,6.97,6.93-2.37-.06-4.74-.12-7.11-.17Z"/>
      <path class="cls-5" d="M65.65,64c-2.64.03-5.29.05-7.93.08,0,0-.22.04-.22.04.02-2.7.03-5.4.05-8.1.39-.24.77-.48,1.16-.73.38-.03.77-.07,1.15-.1,1.22,0,2.44,0,3.65,0,.75.25,1.49.5,2.24.75-.04,2.69-.07,5.37-.11,8.06Z"/>
      <path class="cls-8" d="M65.76,55.94c-.75-.25-1.49-.5-2.24-.75.73-.06,1.46-.11,2.2-.17,0,.31.01.61.04.92Z"/>
      <path class="cls-7" d="M39.69,63.01c-.87.99-1.77,2.85-2.6,2.81-3.54-.15-4.65,1.25-4.52,4.67.09,2.41-.25,2.42-2.91,2.38.34-2.96.67-5.93,1.01-8.89,3.01-.32,6.02-.64,9.03-.96Z"/>
      <path class="cls-1" d="M32.67,55.99c2.03-.07,4.07-.14,6.1-.21.1.39.21.77.31,1.16-.26.19-.59.33-.77.59-1.12,1.59-.16,5.56-3.72,4.15-1.2-.48-1.32-3.71-1.93-5.68Z"/>
      <path class="cls-7" d="M39.09,56.94c-.11-.38-.21-.77-.31-1.16.26-.24.53-.48.79-.72,2.36-.08,4.72-.16,7.08-.24.9-.42,1.8-.83,2.69-1.25-1.52,1.46-2.85,3.3-4.64,4.27-1.27.68-3.17.19-4.79.22-.27-.37-.55-.74-.82-1.12Z"/>
      <path class="cls-7" d="M50.75,47.25c-.51.6-1.01,1.2-1.52,1.8.51-.6,1.01-1.2,1.52-1.8Z"/>
      <path class="cls-7" d="M23.72,80.86c-.62-.01-1.23-.03-1.85-.04.02-.62.03-1.24.05-1.86.6.64,1.2,1.27,1.8,1.91Z"/>
      <path class="cls-8" d="M39.72,81.17c2.97-.07,5.95-.15,8.92-.22,0,.66.02,1.31.02,1.97-2.98-.58-5.96-1.16-8.95-1.75Z"/>
      <path class="cls-8" d="M57.55,56.02c-.02,2.7-.03,5.4-.05,8.1-2.61-2.72-2.69-5.42.05-8.1Z"/>
      <path class="cls-9" d="M31.29,85.35c-.59-1.4-1.17-2.81-1.76-4.21.59,1.41,1.17,2.81,1.76,4.21Z"/>
      <path class="cls-8" d="M59.86,55.2c-.38.03-.77.07-1.15.1.38-.03.77-.07,1.15-.1Z"/>
    </g>
  </g>
</svg>